ffmpeg started on 2025-10-01 at 10:56:37
Report written to "D:\Convert\FFMetrics\reports\ssim_report-6.txt"
Log level: 32
Command line:
ffmpeg -hide_banner -nostdin -i "F:\\\xc0\xed\xe8\xec\xe5\\\xce\xed\xe3\xee\xe8\xed\xe3\xe8\\!_37_\xc7\xe8\xec\xe0_2025\\JamClub\\\xc4\xee\xea\xf2\xee\xf0 \xd1\xf2\xee\xf3\xed\\\xd2\xc2-4\\JamClub_Dr_Stone_Science_Future_07_1080p_HEVC.mkv" -i "F:\\\xc0\xed\xe8\xec\xe5\\\xce\xed\xe3\xee\xe8\xed\xe3\xe8\\!_37_\xc7\xe8\xec\xe0_2025\\JamClub\\\xc4\xee\xea\xf2\xee\xf0 \xd1\xf2\xee\xf3\xed\\\xd2\xc2-4\\JamClub_Dr_Stone_Science_Future_07_1080p.mp4" -lavfi "[0:v]settb=AVTB,setpts=PTS-STARTPTS,format=pix_fmts=yuv420p10le,fps=24000/1001,scale=1920:1080:flags=bicubic:out_range=limited:out_chroma_loc=left,colorspace=format=yuv420p10:range=tv:primaries=bt709:trc=bt709:space=bt709:fast=0[main];[1:v]settb=AVTB,setpts=PTS-STARTPTS,format=pix_fmts=yuv420p,fps=24000/1001,scale=1920:1080:flags=bicubic:out_range=limited:out_chroma_loc=left,colorspace=format=yuv420p:irange=tv:iprimaries=bt709:itrc=bt709:ispace=bt709:range=tv:primaries=bt709:trc=bt709:space=bt709:fast=0[ref];[main][ref]ssim=eof_action=endall:stats_file='D\\:/Convert/FFMetrics/logs/ssim_logfile-6.txt'" -f null -
Input #0, matroska,webm, from 'F:\Аниме\Онгоинги\!_37_Зима_2025\JamClub\Доктор Стоун\ТВ-4\JamClub_Dr_Stone_Science_Future_07_1080p_HEVC.mkv':
  Metadata:
    COMPATIBLE_BRANDS: isomiso2avc1mp41
    MAJOR_BRAND     : isom
    MINOR_VERSION   : 512
    ENCODER         : Lavf61.7.100
  Duration: 00:24:24.88, start: -0.001000, bitrate: 1561 kb/s
  Stream #0:0: Video: hevc (Main 10), yuv420p10le(tv, bt709, progressive), 1920x1080 [SAR 1:1 DAR 16:9], 23.98 fps, 23.98 tbr, 1k tbn (default)
      Metadata:
        HANDLER_NAME    : VideoHandler
        VENDOR_ID       : [0][0][0][0]
        ENCODER         : Lavc61.19.100 libx265
        BPS             : 1363225
        DURATION        : 00:24:22.210708333
        NUMBER_OF_FRAMES: 35058
        NUMBER_OF_BYTES : 249165268
        _STATISTICS_WRITING_APP: mkvpropedit v94.0 ('Initiate') 64-bit
        _STATISTICS_WRITING_DATE_UTC: 2025-09-30 17:34:26
        _STATISTICS_TAGS: BPS DURATION NUMBER_OF_FRAMES NUMBER_OF_BYTES
  Stream #0:1(eng): Audio: aac (LC), 48000 Hz, stereo, fltp (default)
      Metadata:
        HANDLER_NAME    : SoundHandler
        VENDOR_ID       : [0][0][0][0]
        ENCODER         : Lavc61.19.100 aac
        BPS             : 196411
        DURATION        : 00:24:24.835000000
        NUMBER_OF_FRAMES: 68665
        NUMBER_OF_BYTES : 35963813
        _STATISTICS_WRITING_APP: mkvpropedit v94.0 ('Initiate') 64-bit
        _STATISTICS_WRITING_DATE_UTC: 2025-09-30 17:34:26
        _STATISTICS_TAGS: BPS DURATION NUMBER_OF_FRAMES NUMBER_OF_BYTES
Input #1, mov,mp4,m4a,3gp,3g2,mj2, from 'F:\Аниме\Онгоинги\!_37_Зима_2025\JamClub\Доктор Стоун\ТВ-4\JamClub_Dr_Stone_Science_Future_07_1080p.mp4':
  Metadata:
    major_brand     : isom
    minor_version   : 512
    compatible_brands: isomiso2avc1mp41
    encoder         : Lavf60.16.100
  Duration: 00:24:24.86, start: 0.000000, bitrate: 4430 kb/s
  Stream #1:0[0x1](und): Video: h264 (High) (avc1 / 0x31637661), yuv420p(progressive), 1920x1080 [SAR 1:1 DAR 16:9], 4239 kb/s, 23.98 fps, 23.98 tbr, 90k tbn (default)
      Metadata:
        handler_name    : VideoHandler
        vendor_id       : [0][0][0][0]
  Stream #1:1[0x2](eng): Audio: aac (LC) (mp4a / 0x6134706D), 48000 Hz, stereo, fltp, 191 kb/s (default)
      Metadata:
        handler_name    : SoundHandler
        vendor_id       : [0][0][0][0]
Stream mapping:
  Stream #0:0 (hevc) -> settb:default
  Stream #1:0 (h264) -> settb:default
  ssim:default -> Stream #0:0 (wrapped_avframe)
  Stream #0:1 -> #0:1 (aac (native) -> pcm_s16le (native))
Output #0, null, to 'pipe:':
  Metadata:
    COMPATIBLE_BRANDS: isomiso2avc1mp41
    MAJOR_BRAND     : isom
    MINOR_VERSION   : 512
    encoder         : Lavf61.7.100
  Stream #0:0: Video: wrapped_avframe, yuv420p10le(tv, bt709, progressive), 1920x1080 [SAR 1:1 DAR 16:9], q=2-31, 200 kb/s, 23.98 fps, 23.98 tbn
      Metadata:
        encoder         : Lavc61.19.100 wrapped_avframe
  Stream #0:1(eng): Audio: pcm_s16le, 48000 Hz, stereo, s16, 1536 kb/s (default)
      Metadata:
        HANDLER_NAME    : SoundHandler
        VENDOR_ID       : [0][0][0][0]
        _STATISTICS_TAGS: BPS DURATION NUMBER_OF_FRAMES NUMBER_OF_BYTES
        BPS             : 196411
        DURATION        : 00:24:24.835000000
        NUMBER_OF_FRAMES: 68665
        NUMBER_OF_BYTES : 35963813
        _STATISTICS_WRITING_APP: mkvpropedit v94.0 ('Initiate') 64-bit
        _STATISTICS_WRITING_DATE_UTC: 2025-09-30 17:34:26
        encoder         : Lavc61.19.100 pcm_s16le
frame=   97 fps=0.0 q=-0.0 size=N/A time=00:00:04.04 bitrate=N/A speed=7.85x    frame=  233 fps=227 q=-0.0 size=N/A time=00:00:09.71 bitrate=N/A speed=9.48x    frame=  396 fps=255 q=-0.0 size=N/A time=00:00:16.51 bitrate=N/A speed=10.6x    frame=  567 fps=275 q=-0.0 size=N/A time=00:00:23.64 bitrate=N/A speed=11.5x    frame=  752 fps=292 q=-0.0 size=N/A time=00:00:31.36 bitrate=N/A speed=12.2x    frame=  928 fps=301 q=-0.0 size=N/A time=00:00:38.70 bitrate=N/A speed=12.5x    frame= 1115 fps=310 q=-0.0 size=N/A time=00:00:46.50 bitrate=N/A speed=12.9x    frame= 1301 fps=315 q=-0.0 size=N/A time=00:00:54.26 bitrate=N/A speed=13.1x    frame= 1479 fps=319 q=-0.0 size=N/A time=00:01:01.68 bitrate=N/A speed=13.3x    frame= 1639 fps=318 q=-0.0 size=N/A time=00:01:08.35 bitrate=N/A speed=13.3x    frame= 1792 fps=316 q=-0.0 size=N/A time=00:01:14.74 bitrate=N/A speed=13.2x    frame= 1916 fps=310 q=-0.0 size=N/A time=00:01:19.91 bitrate=N/A speed=12.9x    frame= 2049 fps=305 q=-0.0 size=N/A time=00:01:25.46 bitrate=N/A speed=12.7x    frame= 2176 fps=301 q=-0.0 size=N/A time=00:01:30.75 bitrate=N/A speed=12.6x    frame= 2300 fps=297 q=-0.0 size=N/A time=00:01:35.92 bitrate=N/A speed=12.4x    frame= 2445 fps=297 q=-0.0 size=N/A time=00:01:41.97 bitrate=N/A speed=12.4x    frame= 2601 fps=297 q=-0.0 size=N/A time=00:01:48.48 bitrate=N/A speed=12.4x    frame= 2733 fps=294 q=-0.0 size=N/A time=00:01:53.98 bitrate=N/A speed=12.3x    frame= 2852 fps=291 q=-0.0 size=N/A time=00:01:58.95 bitrate=N/A speed=12.1x    frame= 2984 fps=290 q=-0.0 size=N/A time=00:02:04.45 bitrate=N/A speed=12.1x    frame= 3126 fps=289 q=-0.0 size=N/A time=00:02:10.38 bitrate=N/A speed=  12x    frame= 3239 fps=286 q=-0.0 size=N/A time=00:02:15.09 bitrate=N/A speed=11.9x    frame= 3340 fps=282 q=-0.0 size=N/A time=00:02:19.30 bitrate=N/A speed=11.7x    frame= 3501 fps=283 q=-0.0 size=N/A time=00:02:26.02 bitrate=N/A speed=11.8x    frame= 3644 fps=283 q=-0.0 size=N/A time=00:02:31.98 bitrate=N/A speed=11.8x    frame= 3778 fps=282 q=-0.0 size=N/A time=00:02:37.57 bitrate=N/A speed=11.8x    frame= 3953 fps=284 q=-0.0 size=N/A time=00:02:44.87 bitrate=N/A speed=11.8x    frame= 4133 fps=286 q=-0.0 size=N/A time=00:02:52.38 bitrate=N/A speed=11.9x    frame= 4318 fps=289 q=-0.0 size=N/A time=00:03:00.09 bitrate=N/A speed=  12x    frame= 4493 fps=291 q=-0.0 size=N/A time=00:03:07.39 bitrate=N/A speed=12.1x    frame= 4680 fps=293 q=-0.0 size=N/A time=00:03:15.19 bitrate=N/A speed=12.2x    frame= 4854 fps=294 q=-0.0 size=N/A time=00:03:22.45 bitrate=N/A speed=12.3x    frame= 5015 fps=295 q=-0.0 size=N/A time=00:03:29.16 bitrate=N/A speed=12.3x    frame= 5211 fps=297 q=-0.0 size=N/A time=00:03:37.38 bitrate=N/A speed=12.4x    frame= 5394 fps=299 q=-0.0 size=N/A time=00:03:44.97 bitrate=N/A speed=12.5x    frame= 5561 fps=300 q=-0.0 size=N/A time=00:03:51.94 bitrate=N/A speed=12.5x    frame= 5755 fps=302 q=-0.0 size=N/A time=00:04:00.03 bitrate=N/A speed=12.6x    frame= 5934 fps=303 q=-0.0 size=N/A time=00:04:07.49 bitrate=N/A speed=12.6x    frame= 6113 fps=304 q=-0.0 size=N/A time=00:04:14.96 bitrate=N/A speed=12.7x    frame= 6301 fps=306 q=-0.0 size=N/A time=00:04:22.80 bitrate=N/A speed=12.7x    frame= 6490 fps=307 q=-0.0 size=N/A time=00:04:30.68 bitrate=N/A speed=12.8x    frame= 6661 fps=308 q=-0.0 size=N/A time=00:04:37.81 bitrate=N/A speed=12.8x    frame= 6829 fps=308 q=-0.0 size=N/A time=00:04:44.82 bitrate=N/A speed=12.8x    frame= 7004 fps=309 q=-0.0 size=N/A time=00:04:52.12 bitrate=N/A speed=12.9x    frame= 7184 fps=310 q=-0.0 size=N/A time=00:04:59.63 bitrate=N/A speed=12.9x    frame= 7358 fps=310 q=-0.0 size=N/A time=00:05:06.88 bitrate=N/A speed=12.9x    frame= 7545 fps=311 q=-0.0 size=N/A time=00:05:14.68 bitrate=N/A speed=  13x    frame= 7725 fps=312 q=-0.0 size=N/A time=00:05:22.19 bitrate=N/A speed=  13x    frame= 7918 fps=313 q=-0.0 size=N/A time=00:05:30.24 bitrate=N/A speed=13.1x    frame= 8103 fps=314 q=-0.0 size=N/A time=00:05:37.96 bitrate=N/A speed=13.1x    frame= 8271 fps=315 q=-0.0 size=N/A time=00:05:44.96 bitrate=N/A speed=13.1x    frame= 8463 fps=316 q=-0.0 size=N/A time=00:05:52.97 bitrate=N/A speed=13.2x    frame= 8640 fps=316 q=-0.0 size=N/A time=00:06:00.36 bitrate=N/A speed=13.2x    frame= 8824 fps=317 q=-0.0 size=N/A time=00:06:08.03 bitrate=N/A speed=13.2x    frame= 9006 fps=318 q=-0.0 size=N/A time=00:06:15.62 bitrate=N/A speed=13.2x    frame= 9185 fps=318 q=-0.0 size=N/A time=00:06:23.09 bitrate=N/A speed=13.3x    frame= 9351 fps=318 q=-0.0 size=N/A time=00:06:30.01 bitrate=N/A speed=13.3x    frame= 9509 fps=318 q=-0.0 size=N/A time=00:06:36.60 bitrate=N/A speed=13.3x    frame= 9691 fps=319 q=-0.0 size=N/A time=00:06:44.19 bitrate=N/A speed=13.3x    frame= 9869 fps=319 q=-0.0 size=N/A time=00:06:51.61 bitrate=N/A speed=13.3x    frame=10052 fps=320 q=-0.0 size=N/A time=00:06:59.25 bitrate=N/A speed=13.3x    frame=10242 fps=320 q=-0.0 size=N/A time=00:07:07.17 bitrate=N/A speed=13.4x    frame=10420 fps=321 q=-0.0 size=N/A time=00:07:14.60 bitrate=N/A speed=13.4x    frame=10597 fps=321 q=-0.0 size=N/A time=00:07:21.98 bitrate=N/A speed=13.4x    frame=10781 fps=322 q=-0.0 size=N/A time=00:07:29.65 bitrate=N/A speed=13.4x    frame=10956 fps=322 q=-0.0 size=N/A time=00:07:36.95 bitrate=N/A speed=13.4x    frame=11138 fps=322 q=-0.0 size=N/A time=00:07:44.54 bitrate=N/A speed=13.4x    frame=11306 fps=323 q=-0.0 size=N/A time=00:07:51.55 bitrate=N/A speed=13.5x    frame=11486 fps=323 q=-0.0 size=N/A time=00:07:59.06 bitrate=N/A speed=13.5x    frame=11666 fps=323 q=-0.0 size=N/A time=00:08:06.56 bitrate=N/A speed=13.5x    frame=11848 fps=324 q=-0.0 size=N/A time=00:08:14.16 bitrate=N/A speed=13.5x    frame=12037 fps=324 q=-0.0 size=N/A time=00:08:22.04 bitrate=N/A speed=13.5x    frame=12219 fps=325 q=-0.0 size=N/A time=00:08:29.63 bitrate=N/A speed=13.5x    frame=12402 fps=325 q=-0.0 size=N/A time=00:08:37.26 bitrate=N/A speed=13.6x    frame=12556 fps=325 q=-0.0 size=N/A time=00:08:43.68 bitrate=N/A speed=13.5x    frame=12722 fps=325 q=-0.0 size=N/A time=00:08:50.61 bitrate=N/A speed=13.5x    frame=12913 fps=325 q=-0.0 size=N/A time=00:08:58.57 bitrate=N/A speed=13.6x    frame=13089 fps=325 q=-0.0 size=N/A time=00:09:05.92 bitrate=N/A speed=13.6x    frame=13265 fps=326 q=-0.0 size=N/A time=00:09:13.26 bitrate=N/A speed=13.6x    frame=13443 fps=326 q=-0.0 size=N/A time=00:09:20.68 bitrate=N/A speed=13.6x    frame=13629 fps=326 q=-0.0 size=N/A time=00:09:28.44 bitrate=N/A speed=13.6x    frame=13810 fps=327 q=-0.0 size=N/A time=00:09:35.99 bitrate=N/A speed=13.6x    frame=13995 fps=327 q=-0.0 size=N/A time=00:09:43.70 bitrate=N/A speed=13.6x    frame=14168 fps=327 q=-0.0 size=N/A time=00:09:50.92 bitrate=N/A speed=13.6x    frame=14348 fps=327 q=-0.0 size=N/A time=00:09:58.43 bitrate=N/A speed=13.7x    frame=14523 fps=327 q=-0.0 size=N/A time=00:10:05.73 bitrate=N/A speed=13.7x    frame=14699 fps=328 q=-0.0 size=N/A time=00:10:13.07 bitrate=N/A speed=13.7x    frame=14868 fps=328 q=-0.0 size=N/A time=00:10:20.11 bitrate=N/A speed=13.7x    frame=15040 fps=328 q=-0.0 size=N/A time=00:10:27.29 bitrate=N/A speed=13.7x    frame=15210 fps=328 q=-0.0 size=N/A time=00:10:34.38 bitrate=N/A speed=13.7x    frame=15390 fps=328 q=-0.0 size=N/A time=00:10:41.89 bitrate=N/A speed=13.7x    frame=15586 fps=329 q=-0.0 size=N/A time=00:10:50.06 bitrate=N/A speed=13.7x    frame=15759 fps=329 q=-0.0 size=N/A time=00:10:57.28 bitrate=N/A speed=13.7x    frame=15940 fps=329 q=-0.0 size=N/A time=00:11:04.83 bitrate=N/A speed=13.7x    frame=16124 fps=329 q=-0.0 size=N/A time=00:11:12.50 bitrate=N/A speed=13.7x    frame=16318 fps=330 q=-0.0 size=N/A time=00:11:20.59 bitrate=N/A speed=13.7x    frame=16505 fps=330 q=-0.0 size=N/A time=00:11:28.39 bitrate=N/A speed=13.8x    frame=16689 fps=330 q=-0.0 size=N/A time=00:11:36.07 bitrate=N/A speed=13.8x    frame=16871 fps=331 q=-0.0 size=N/A time=00:11:43.66 bitrate=N/A speed=13.8x    frame=17060 fps=331 q=-0.0 size=N/A time=00:11:51.54 bitrate=N/A speed=13.8x    frame=17234 fps=331 q=-0.0 size=N/A time=00:11:58.80 bitrate=N/A speed=13.8x    frame=17411 fps=331 q=-0.0 size=N/A time=00:12:06.18 bitrate=N/A speed=13.8x    frame=17594 fps=331 q=-0.0 size=N/A time=00:12:13.81 bitrate=N/A speed=13.8x    frame=17771 fps=331 q=-0.0 size=N/A time=00:12:21.19 bitrate=N/A speed=13.8x    frame=17934 fps=331 q=-0.0 size=N/A time=00:12:27.99 bitrate=N/A speed=13.8x    frame=18101 fps=331 q=-0.0 size=N/A time=00:12:34.96 bitrate=N/A speed=13.8x    frame=18264 fps=331 q=-0.0 size=N/A time=00:12:41.76 bitrate=N/A speed=13.8x    frame=18445 fps=331 q=-0.0 size=N/A time=00:12:49.31 bitrate=N/A speed=13.8x    frame=18626 fps=331 q=-0.0 size=N/A time=00:12:56.85 bitrate=N/A speed=13.8x    frame=18813 fps=332 q=-0.0 size=N/A time=00:13:04.65 bitrate=N/A speed=13.8x    frame=19004 fps=332 q=-0.0 size=N/A time=00:13:12.62 bitrate=N/A speed=13.8x    frame=19185 fps=332 q=-0.0 size=N/A time=00:13:20.17 bitrate=N/A speed=13.9x    frame=19373 fps=332 q=-0.0 size=N/A time=00:13:28.01 bitrate=N/A speed=13.9x    frame=19558 fps=333 q=-0.0 size=N/A time=00:13:35.73 bitrate=N/A speed=13.9x    frame=19742 fps=333 q=-0.0 size=N/A time=00:13:43.40 bitrate=N/A speed=13.9x    frame=19919 fps=333 q=-0.0 size=N/A time=00:13:50.78 bitrate=N/A speed=13.9x    frame=20092 fps=333 q=-0.0 size=N/A time=00:13:58.00 bitrate=N/A speed=13.9x    frame=20277 fps=333 q=-0.0 size=N/A time=00:14:05.71 bitrate=N/A speed=13.9x    frame=20463 fps=333 q=-0.0 size=N/A time=00:14:13.47 bitrate=N/A speed=13.9x    frame=20651 fps=334 q=-0.0 size=N/A time=00:14:21.31 bitrate=N/A speed=13.9x    frame=20829 fps=334 q=-0.0 size=N/A time=00:14:28.74 bitrate=N/A speed=13.9x    frame=21006 fps=334 q=-0.0 size=N/A time=00:14:36.12 bitrate=N/A speed=13.9x    frame=21183 fps=334 q=-0.0 size=N/A time=00:14:43.50 bitrate=N/A speed=13.9x    frame=21369 fps=334 q=-0.0 size=N/A time=00:14:51.26 bitrate=N/A speed=13.9x    frame=21547 fps=334 q=-0.0 size=N/A time=00:14:58.68 bitrate=N/A speed=13.9x    frame=21703 fps=334 q=-0.0 size=N/A time=00:15:05.19 bitrate=N/A speed=13.9x    frame=21885 fps=334 q=-0.0 size=N/A time=00:15:12.78 bitrate=N/A speed=13.9x    frame=22067 fps=334 q=-0.0 size=N/A time=00:15:20.37 bitrate=N/A speed=13.9x    frame=22243 fps=334 q=-0.0 size=N/A time=00:15:27.71 bitrate=N/A speed=13.9x    frame=22416 fps=334 q=-0.0 size=N/A time=00:15:34.93 bitrate=N/A speed=13.9x    frame=22596 fps=334 q=-0.0 size=N/A time=00:15:42.44 bitrate=N/A speed=  14x    frame=22773 fps=335 q=-0.0 size=N/A time=00:15:49.82 bitrate=N/A speed=  14x    frame=22967 fps=335 q=-0.0 size=N/A time=00:15:57.91 bitrate=N/A speed=  14x    frame=23156 fps=335 q=-0.0 size=N/A time=00:16:05.79 bitrate=N/A speed=  14x    frame=23343 fps=335 q=-0.0 size=N/A time=00:16:13.59 bitrate=N/A speed=  14x    frame=23532 fps=335 q=-0.0 size=N/A time=00:16:21.48 bitrate=N/A speed=  14x    frame=23710 fps=336 q=-0.0 size=N/A time=00:16:28.90 bitrate=N/A speed=  14x    frame=23894 fps=336 q=-0.0 size=N/A time=00:16:36.57 bitrate=N/A speed=  14x    frame=24082 fps=336 q=-0.0 size=N/A time=00:16:44.42 bitrate=N/A speed=  14x    frame=24266 fps=336 q=-0.0 size=N/A time=00:16:52.09 bitrate=N/A speed=  14x    frame=24429 fps=336 q=-0.0 size=N/A time=00:16:58.89 bitrate=N/A speed=  14x    frame=24609 fps=336 q=-0.0 size=N/A time=00:17:06.40 bitrate=N/A speed=  14x    frame=24795 fps=336 q=-0.0 size=N/A time=00:17:14.15 bitrate=N/A speed=  14x    frame=24978 fps=336 q=-0.0 size=N/A time=00:17:21.79 bitrate=N/A speed=  14x    frame=25162 fps=336 q=-0.0 size=N/A time=00:17:29.46 bitrate=N/A speed=  14x    frame=25346 fps=337 q=-0.0 size=N/A time=00:17:37.13 bitrate=N/A speed=  14x    frame=25538 fps=337 q=-0.0 size=N/A time=00:17:45.14 bitrate=N/A speed=  14x    frame=25727 fps=337 q=-0.0 size=N/A time=00:17:53.03 bitrate=N/A speed=14.1x    frame=25913 fps=337 q=-0.0 size=N/A time=00:18:00.78 bitrate=N/A speed=14.1x    frame=26104 fps=337 q=-0.0 size=N/A time=00:18:08.75 bitrate=N/A speed=14.1x    frame=26283 fps=337 q=-0.0 size=N/A time=00:18:16.22 bitrate=N/A speed=14.1x    frame=26452 fps=337 q=-0.0 size=N/A time=00:18:23.26 bitrate=N/A speed=14.1x    frame=26652 fps=338 q=-0.0 size=N/A time=00:18:31.61 bitrate=N/A speed=14.1x    frame=26834 fps=338 q=-0.0 size=N/A time=00:18:39.20 bitrate=N/A speed=14.1x    frame=27013 fps=338 q=-0.0 size=N/A time=00:18:46.66 bitrate=N/A speed=14.1x    frame=27197 fps=338 q=-0.0 size=N/A time=00:18:54.34 bitrate=N/A speed=14.1x    frame=27355 fps=338 q=-0.0 size=N/A time=00:19:00.93 bitrate=N/A speed=14.1x    frame=27519 fps=338 q=-0.0 size=N/A time=00:19:07.77 bitrate=N/A speed=14.1x    frame=27690 fps=338 q=-0.0 size=N/A time=00:19:14.90 bitrate=N/A speed=14.1x    frame=27866 fps=338 q=-0.0 size=N/A time=00:19:22.24 bitrate=N/A speed=14.1x    frame=28038 fps=338 q=-0.0 size=N/A time=00:19:29.41 bitrate=N/A speed=14.1x    frame=28201 fps=338 q=-0.0 size=N/A time=00:19:36.21 bitrate=N/A speed=14.1x    frame=28371 fps=338 q=-0.0 size=N/A time=00:19:43.30 bitrate=N/A speed=14.1x    frame=28545 fps=338 q=-0.0 size=N/A time=00:19:50.56 bitrate=N/A speed=14.1x    frame=28718 fps=337 q=-0.0 size=N/A time=00:19:57.77 bitrate=N/A speed=14.1x    frame=28891 fps=337 q=-0.0 size=N/A time=00:20:04.99 bitrate=N/A speed=14.1x    frame=29057 fps=337 q=-0.0 size=N/A time=00:20:11.91 bitrate=N/A speed=14.1x    frame=29235 fps=337 q=-0.0 size=N/A time=00:20:19.34 bitrate=N/A speed=14.1x    frame=29413 fps=337 q=-0.0 size=N/A time=00:20:26.76 bitrate=N/A speed=14.1x    frame=29595 fps=338 q=-0.0 size=N/A time=00:20:34.35 bitrate=N/A speed=14.1x    frame=29778 fps=338 q=-0.0 size=N/A time=00:20:41.99 bitrate=N/A speed=14.1x    frame=29960 fps=338 q=-0.0 size=N/A time=00:20:49.58 bitrate=N/A speed=14.1x    frame=30126 fps=338 q=-0.0 size=N/A time=00:20:56.50 bitrate=N/A speed=14.1x    frame=30297 fps=338 q=-0.0 size=N/A time=00:21:03.63 bitrate=N/A speed=14.1x    frame=30484 fps=338 q=-0.0 size=N/A time=00:21:11.43 bitrate=N/A speed=14.1x    frame=30658 fps=338 q=-0.0 size=N/A time=00:21:18.69 bitrate=N/A speed=14.1x    frame=30834 fps=338 q=-0.0 size=N/A time=00:21:26.03 bitrate=N/A speed=14.1x    frame=31001 fps=338 q=-0.0 size=N/A time=00:21:33.00 bitrate=N/A speed=14.1x    frame=31186 fps=338 q=-0.0 size=N/A time=00:21:40.71 bitrate=N/A speed=14.1x    frame=31373 fps=338 q=-0.0 size=N/A time=00:21:48.51 bitrate=N/A speed=14.1x    frame=31540 fps=338 q=-0.0 size=N/A time=00:21:55.48 bitrate=N/A speed=14.1x    frame=31725 fps=338 q=-0.0 size=N/A time=00:22:03.19 bitrate=N/A speed=14.1x    frame=31899 fps=338 q=-0.0 size=N/A time=00:22:10.45 bitrate=N/A speed=14.1x    frame=32073 fps=338 q=-0.0 size=N/A time=00:22:17.71 bitrate=N/A speed=14.1x    frame=32252 fps=338 q=-0.0 size=N/A time=00:22:25.17 bitrate=N/A speed=14.1x    frame=32435 fps=338 q=-0.0 size=N/A time=00:22:32.80 bitrate=N/A speed=14.1x    frame=32620 fps=338 q=-0.0 size=N/A time=00:22:40.52 bitrate=N/A speed=14.1x    frame=32808 fps=338 q=-0.0 size=N/A time=00:22:48.36 bitrate=N/A speed=14.1x    frame=32991 fps=338 q=-0.0 size=N/A time=00:22:55.99 bitrate=N/A speed=14.1x    frame=33172 fps=338 q=-0.0 size=N/A time=00:23:03.54 bitrate=N/A speed=14.1x    frame=33337 fps=338 q=-0.0 size=N/A time=00:23:10.43 bitrate=N/A speed=14.1x    frame=33509 fps=338 q=-0.0 size=N/A time=00:23:17.60 bitrate=N/A speed=14.1x    frame=33686 fps=338 q=-0.0 size=N/A time=00:23:24.98 bitrate=N/A speed=14.1x    frame=33862 fps=338 q=-0.0 size=N/A time=00:23:32.32 bitrate=N/A speed=14.1x    frame=34034 fps=338 q=-0.0 size=N/A time=00:23:39.50 bitrate=N/A speed=14.1x    frame=34214 fps=338 q=-0.0 size=N/A time=00:23:47.00 bitrate=N/A speed=14.1x    frame=34381 fps=338 q=-0.0 size=N/A time=00:23:53.97 bitrate=N/A speed=14.1x    frame=34514 fps=338 q=-0.0 size=N/A time=00:23:59.52 bitrate=N/A speed=14.1x    frame=34674 fps=338 q=-0.0 size=N/A time=00:24:06.19 bitrate=N/A speed=14.1x    frame=34847 fps=338 q=-0.0 size=N/A time=00:24:13.41 bitrate=N/A speed=14.1x    frame=35031 fps=338 q=-0.0 size=N/A time=00:24:21.08 bitrate=N/A speed=14.1x    [Parsed_ssim_12 @ 000001eb79728380] SSIM Y:0.994307 (22.446461) U:0.993694 (22.002506) V:0.993540 (21.898002) All:0.994077 (22.274569)
[out#0/null @ 000001eb6d792d80] video:15064KiB audio:274660KiB subtitle:0KiB other streams:0KiB global headers:0KiB muxing overhead: unknown
frame=35058 fps=338 q=-0.0 Lsize=N/A time=00:24:22.21 bitrate=N/A speed=14.1x    
